<svg xmlns="http://www.w3.org/2000/svg" xmlns:xlink="http://www.w3.org/1999/xlink" width="500" zoomAndPan="magnify" viewBox="0 0 375 374.999991" height="500" preserveAspectRatio="xMidYMid meet" version="1.0"><defs><clipPath id="824690db6f"><path d="M 13 19 L 358 19 L 358 364 L 13 364 Z M 13 19 " clip-rule="nonzero"/></clipPath><clipPath id="e7c7e59967"><path d="M 57.167969 -49.523438 L 427.085938 61.601562 L 318.121094 424.335938 L -51.800781 313.214844 Z M 57.167969 -49.523438 " clip-rule="nonzero"/></clipPath><clipPath id="7e7ed83ae5"><path d="M 57.167969 -49.523438 L 427.085938 61.601562 L 318.121094 424.335938 L -51.800781 313.214844 Z M 57.167969 -49.523438 " clip-rule="nonzero"/></clipPath><clipPath id="ac44e5b7b9"><path d="M 57.167969 -49.523438 L 427.085938 61.601562 L 318.121094 424.335938 L -51.800781 313.214844 Z M 57.167969 -49.523438 " clip-rule="nonzero"/></clipPath></defs><g clip-path="url(#824690db6f)"><g clip-path="url(#e7c7e59967)"><g clip-path="url(#7e7ed83ae5)"><g clip-path="url(#ac44e5b7b9)"><path fill="#0072ff" d="M 296.851562 287.042969 L 332.433594 285.949219 C 334.285156 285.917969 336.109375 285.667969 337.902344 285.195312 C 339.695312 284.722656 341.40625 284.046875 343.035156 283.160156 C 344.660156 282.277344 346.160156 281.210938 347.53125 279.964844 C 348.902344 278.722656 350.105469 277.328125 351.140625 275.792969 C 367.40625 251.054688 349.617188 225.523438 326.566406 226.246094 L 296.542969 227.21875 C 295.925781 227.238281 295.3125 227.195312 294.703125 227.09375 C 294.09375 226.992188 293.5 226.832031 292.921875 226.613281 C 292.347656 226.394531 291.796875 226.125 291.269531 225.796875 C 290.746094 225.46875 290.261719 225.09375 289.8125 224.671875 C 289.359375 224.246094 288.957031 223.785156 288.597656 223.28125 C 288.242188 222.777344 287.933594 222.246094 287.683594 221.683594 C 287.429688 221.121094 287.234375 220.539062 287.097656 219.9375 C 286.957031 219.335938 286.878906 218.726562 286.863281 218.109375 L 284.898438 158.75 C 284.875 158.132812 284.917969 157.519531 285.019531 156.910156 C 285.121094 156.300781 285.277344 155.710938 285.496094 155.132812 C 285.714844 154.554688 285.988281 154.003906 286.316406 153.484375 C 286.644531 152.960938 287.019531 152.472656 287.441406 152.023438 C 287.863281 151.574219 288.328125 151.171875 288.832031 150.816406 C 289.335938 150.457031 289.867188 150.152344 290.429688 149.898438 C 290.996094 149.648438 291.578125 149.453125 292.179688 149.316406 C 292.78125 149.179688 293.390625 149.101562 294.007812 149.085938 L 324.011719 148.175781 C 346.917969 147.480469 363.027344 121.175781 345.699219 97.574219 C 344.53125 96.054688 343.195312 94.695312 341.699219 93.5 C 340.203125 92.300781 338.582031 91.300781 336.839844 90.496094 C 335.101562 89.691406 333.289062 89.105469 331.40625 88.742188 C 329.523438 88.375 327.625 88.238281 325.710938 88.332031 L 290.566406 89.351562 C 290.050781 89.367188 289.535156 89.335938 289.027344 89.25 C 288.515625 89.167969 288.019531 89.035156 287.53125 88.851562 C 287.046875 88.671875 286.585938 88.445312 286.148438 88.171875 C 285.707031 87.898438 285.300781 87.585938 284.921875 87.230469 C 284.542969 86.878906 284.203125 86.492188 283.902344 86.070312 C 283.601562 85.648438 283.34375 85.203125 283.132812 84.734375 C 282.917969 84.261719 282.753906 83.773438 282.636719 83.269531 C 282.519531 82.765625 282.453125 82.257812 282.4375 81.742188 L 281.417969 48.847656 C 280.703125 25.964844 254.363281 9.851562 230.75 27.148438 C 229.226562 28.316406 227.871094 29.644531 226.671875 31.140625 C 225.476562 32.636719 224.472656 34.253906 223.667969 35.992188 C 222.863281 37.730469 222.28125 39.539062 221.914062 41.417969 C 221.550781 43.300781 221.414062 45.195312 221.511719 47.109375 L 222.648438 81.898438 C 222.667969 82.515625 222.628906 83.128906 222.527344 83.738281 C 222.425781 84.347656 222.265625 84.941406 222.046875 85.515625 C 221.828125 86.09375 221.554688 86.644531 221.230469 87.167969 C 220.902344 87.691406 220.527344 88.175781 220.105469 88.625 C 219.679688 89.074219 219.21875 89.476562 218.714844 89.835938 C 218.210938 90.191406 217.679688 90.496094 217.113281 90.75 C 216.550781 91 215.96875 91.195312 215.367188 91.332031 C 214.765625 91.46875 214.15625 91.546875 213.535156 91.566406 L 150.894531 93.417969 C 150.277344 93.4375 149.664062 93.394531 149.054688 93.292969 C 148.445312 93.191406 147.851562 93.03125 147.273438 92.8125 C 146.695312 92.59375 146.144531 92.320312 145.621094 91.996094 C 145.097656 91.667969 144.613281 91.292969 144.160156 90.871094 C 143.710938 90.445312 143.308594 89.984375 142.949219 89.480469 C 142.59375 88.976562 142.285156 88.445312 142.035156 87.882812 C 141.78125 87.320312 141.585938 86.738281 141.445312 86.136719 C 141.308594 85.535156 141.230469 84.925781 141.214844 84.308594 L 140.222656 52.9375 C 139.507812 30.054688 113.167969 13.941406 89.550781 31.238281 C 88.03125 32.40625 86.671875 33.734375 85.476562 35.230469 C 84.277344 36.726562 83.277344 38.34375 82.472656 40.082031 C 81.667969 41.820312 81.082031 43.628906 80.71875 45.507812 C 80.351562 47.390625 80.21875 49.285156 80.3125 51.199219 L 81.484375 87.722656 C 81.515625 88.246094 81.496094 88.769531 81.421875 89.289062 C 81.347656 89.8125 81.226562 90.320312 81.050781 90.816406 C 80.875 91.3125 80.652344 91.785156 80.382812 92.234375 C 80.113281 92.6875 79.800781 93.105469 79.445312 93.496094 C 79.089844 93.882812 78.699219 94.230469 78.277344 94.542969 C 77.851562 94.851562 77.398438 95.117188 76.921875 95.335938 C 76.441406 95.554688 75.949219 95.722656 75.433594 95.84375 C 74.921875 95.964844 74.402344 96.03125 73.878906 96.046875 L 38.507812 97.136719 C 36.621094 97.269531 34.773438 97.605469 32.960938 98.136719 C 31.148438 98.671875 29.414062 99.386719 27.753906 100.292969 C 26.097656 101.199219 24.554688 102.265625 23.125 103.503906 C 21.699219 104.738281 20.417969 106.109375 19.285156 107.621094 C 6.140625 128.40625 16.542969 149.582031 33.875 155.269531 C 37.183594 156.351562 40.574219 156.84375 44.054688 156.746094 L 74.078125 155.773438 C 74.695312 155.753906 75.308594 155.792969 75.917969 155.894531 C 76.527344 155.996094 77.121094 156.15625 77.699219 156.375 C 78.277344 156.59375 78.828125 156.867188 79.351562 157.195312 C 79.875 157.523438 80.363281 157.898438 80.8125 158.320312 C 81.261719 158.742188 81.664062 159.207031 82.023438 159.710938 C 82.382812 160.210938 82.6875 160.746094 82.941406 161.308594 C 83.195312 161.871094 83.390625 162.453125 83.527344 163.054688 C 83.664062 163.65625 83.742188 164.265625 83.757812 164.882812 L 85.832031 224.34375 C 85.855469 224.960938 85.8125 225.574219 85.710938 226.179688 C 85.609375 226.789062 85.453125 227.382812 85.234375 227.960938 C 85.015625 228.535156 84.742188 229.085938 84.414062 229.609375 C 84.085938 230.132812 83.710938 230.617188 83.289062 231.066406 C 82.867188 231.515625 82.402344 231.921875 81.898438 232.277344 C 81.394531 232.636719 80.863281 232.941406 80.300781 233.191406 C 79.734375 233.445312 79.152344 233.640625 78.550781 233.777344 C 77.949219 233.914062 77.339844 233.992188 76.722656 234.007812 L 42.875 235.070312 C 40.992188 235.207031 39.144531 235.542969 37.332031 236.074219 C 35.519531 236.605469 33.78125 237.324219 32.125 238.230469 C 30.464844 239.132812 28.921875 240.203125 27.496094 241.4375 C 26.066406 242.671875 24.785156 244.046875 23.652344 245.554688 C 10.511719 266.34375 20.914062 287.519531 38.242188 293.207031 C 41.589844 294.316406 45.027344 294.820312 48.550781 294.71875 L 80.101562 293.722656 C 80.617188 293.707031 81.128906 293.738281 81.640625 293.820312 C 82.152344 293.90625 82.648438 294.039062 83.132812 294.21875 C 83.617188 294.402344 84.082031 294.628906 84.519531 294.902344 C 84.960938 295.175781 85.367188 295.488281 85.746094 295.84375 C 86.125 296.195312 86.460938 296.582031 86.765625 297.003906 C 87.066406 297.421875 87.324219 297.871094 87.535156 298.339844 C 87.75 298.8125 87.914062 299.296875 88.03125 299.800781 C 88.148438 300.304688 88.214844 300.816406 88.230469 301.332031 L 89.25 334.226562 C 89.292969 335.757812 89.453125 337.273438 89.734375 338.777344 C 90.011719 340.28125 90.402344 341.757812 90.90625 343.203125 C 91.414062 344.648438 92.023438 346.046875 92.746094 347.394531 C 93.464844 348.746094 94.28125 350.035156 95.199219 351.261719 C 96.117188 352.488281 97.125 353.636719 98.21875 354.707031 C 99.3125 355.777344 100.480469 356.761719 101.726562 357.652344 C 102.96875 358.546875 104.277344 359.335938 105.640625 360.03125 C 107.007812 360.722656 108.417969 361.304688 109.875 361.78125 C 112.40625 362.546875 114.996094 363.003906 117.636719 363.148438 C 120.277344 363.292969 122.898438 363.125 125.5 362.640625 C 128.097656 362.15625 130.605469 361.371094 133.015625 360.285156 C 135.425781 359.203125 137.675781 357.847656 139.761719 356.222656 C 141.316406 355.0625 142.707031 353.734375 143.933594 352.238281 C 145.160156 350.738281 146.1875 349.113281 147.015625 347.359375 C 147.84375 345.609375 148.445312 343.78125 148.824219 341.882812 C 149.199219 339.980469 149.339844 338.0625 149.246094 336.128906 L 148.042969 301.316406 C 148.023438 300.703125 148.0625 300.089844 148.164062 299.480469 C 148.265625 298.871094 148.425781 298.277344 148.644531 297.703125 C 148.863281 297.125 149.136719 296.574219 149.460938 296.050781 C 149.789062 295.527344 150.164062 295.042969 150.589844 294.59375 C 151.011719 294.144531 151.476562 293.742188 151.976562 293.382812 C 152.480469 293.027344 153.015625 292.722656 153.578125 292.46875 C 154.140625 292.21875 154.722656 292.023438 155.328125 291.886719 C 155.929688 291.746094 156.539062 291.671875 157.15625 291.652344 L 219.796875 289.800781 C 220.414062 289.78125 221.027344 289.824219 221.636719 289.925781 C 222.246094 290.027344 222.839844 290.1875 223.417969 290.40625 C 223.996094 290.625 224.546875 290.894531 225.070312 291.222656 C 225.59375 291.550781 226.082031 291.925781 226.53125 292.347656 C 226.980469 292.773438 227.382812 293.234375 227.742188 293.738281 C 228.101562 294.242188 228.40625 294.773438 228.660156 295.335938 C 228.910156 295.898438 229.105469 296.480469 229.246094 297.082031 C 229.382812 297.683594 229.460938 298.292969 229.476562 298.910156 L 230.472656 330.28125 C 230.519531 331.804688 230.683594 333.320312 230.964844 334.816406 C 231.242188 336.316406 231.636719 337.789062 232.140625 339.226562 C 232.644531 340.667969 233.257812 342.058594 233.976562 343.40625 C 234.695312 344.753906 235.511719 346.035156 236.425781 347.257812 C 237.34375 348.480469 238.34375 349.625 239.4375 350.691406 C 240.527344 351.761719 241.691406 352.738281 242.933594 353.628906 C 244.171875 354.519531 245.472656 355.3125 246.835938 356.003906 C 248.195312 356.695312 249.601562 357.277344 251.054688 357.753906 C 252.34375 358.132812 253.652344 358.425781 254.980469 358.640625 C 256.308594 358.855469 257.644531 358.988281 258.988281 359.035156 C 260.332031 359.085938 261.675781 359.050781 263.011719 358.933594 C 264.351562 358.816406 265.679688 358.613281 266.996094 358.332031 C 268.308594 358.050781 269.601562 357.6875 270.871094 357.246094 C 272.140625 356.804688 273.375 356.285156 274.582031 355.6875 C 275.785156 355.09375 276.949219 354.425781 278.070312 353.683594 C 279.191406 352.945312 280.265625 352.136719 281.285156 351.265625 C 282.78125 350.113281 284.117188 348.800781 285.292969 347.328125 C 286.472656 345.855469 287.457031 344.265625 288.253906 342.558594 C 289.050781 340.847656 289.632812 339.070312 290 337.21875 C 290.367188 335.371094 290.511719 333.503906 290.429688 331.621094 L 289.257812 295.097656 C 289.246094 294.585938 289.28125 294.074219 289.367188 293.570312 C 289.453125 293.0625 289.589844 292.570312 289.773438 292.089844 C 289.957031 291.613281 290.183594 291.152344 290.457031 290.71875 C 290.730469 290.285156 291.042969 289.878906 291.394531 289.507812 C 291.746094 289.132812 292.132812 288.796875 292.550781 288.5 C 292.96875 288.203125 293.410156 287.945312 293.878906 287.734375 C 294.347656 287.523438 294.832031 287.359375 295.332031 287.246094 C 295.832031 287.128906 296.339844 287.0625 296.851562 287.042969 Z M 215.242188 229.871094 L 158.21875 231.621094 C 157.410156 231.648438 156.609375 231.597656 155.8125 231.464844 C 155.015625 231.335938 154.238281 231.128906 153.480469 230.84375 C 152.722656 230.5625 152 230.207031 151.3125 229.78125 C 150.625 229.355469 149.988281 228.863281 149.398438 228.3125 C 148.808594 227.761719 148.277344 227.15625 147.804688 226.5 C 147.335938 225.84375 146.933594 225.148438 146.597656 224.414062 C 146.265625 223.675781 146.003906 222.917969 145.824219 222.128906 C 145.640625 221.34375 145.535156 220.546875 145.507812 219.738281 L 143.859375 165.988281 C 143.828125 165.191406 143.875 164.398438 144 163.613281 C 144.125 162.824219 144.324219 162.058594 144.601562 161.308594 C 144.875 160.558594 145.21875 159.847656 145.632812 159.164062 C 146.046875 158.484375 146.523438 157.847656 147.058594 157.261719 C 147.597656 156.671875 148.1875 156.140625 148.828125 155.667969 C 149.46875 155.195312 150.152344 154.785156 150.871094 154.445312 C 151.59375 154.105469 152.339844 153.835938 153.113281 153.640625 C 153.886719 153.445312 154.671875 153.328125 155.46875 153.285156 L 212.511719 151.472656 C 213.320312 151.445312 214.121094 151.496094 214.917969 151.625 C 215.714844 151.757812 216.492188 151.964844 217.25 152.246094 C 218.007812 152.53125 218.730469 152.886719 219.417969 153.3125 C 220.101562 153.738281 220.742188 154.226562 221.332031 154.777344 C 221.921875 155.332031 222.453125 155.933594 222.925781 156.589844 C 223.394531 157.246094 223.796875 157.941406 224.132812 158.679688 C 224.464844 159.414062 224.722656 160.175781 224.90625 160.960938 C 225.089844 161.75 225.195312 162.546875 225.222656 163.351562 L 226.910156 216.980469 C 226.953125 217.785156 226.914062 218.589844 226.800781 219.386719 C 226.683594 220.1875 226.488281 220.964844 226.21875 221.726562 C 225.949219 222.488281 225.605469 223.214844 225.191406 223.910156 C 224.777344 224.601562 224.300781 225.246094 223.757812 225.847656 C 223.214844 226.445312 222.621094 226.984375 221.972656 227.46875 C 221.324219 227.949219 220.632812 228.363281 219.902344 228.707031 C 219.171875 229.050781 218.414062 229.324219 217.628906 229.519531 C 216.847656 229.714844 216.050781 229.832031 215.242188 229.871094 Z M 215.242188 229.871094 " fill-opacity="1" fill-rule="nonzero"/></g></g></g></g></svg>